<svg width="123" height="124" viewBox="0 0 123 124" fill="none" xmlns="http://www.w3.org/2000/svg">
    <path d="M122.392 107.285L121.759 105.261C118.001 107.357 108.785 111.947 97.6532 113.519C97.5628 113.537 97.4725 113.537 97.4002 113.537C96.4967 113.537 95.7377 112.887 95.6112 111.983C95.4666 110.989 96.1533 110.086 97.1472 109.941C108.351 108.369 117.748 103.4 120.675 101.719L110.104 67.3489C109.815 66.3731 109.58 65.3792 109.363 64.3853C109.218 64.2046 109.11 63.9878 109.038 63.7528C108.767 62.759 102.026 39.6829 69.1017 46.5136C69.0836 46.5316 69.0836 46.5136 69.0656 46.5136C68.7042 47.9953 67.367 49.0976 65.7767 49.0976H56.9583C55.3681 49.0976 54.049 47.9953 53.6695 46.5136C53.5972 46.5136 53.5069 46.5316 53.4346 46.5136C39.466 43.6223 28.4972 45.6642 20.8173 52.6214C15.1612 57.7534 13.5168 63.6986 13.4987 63.7528C13.4987 63.7528 13.4806 63.7528 13.4806 63.7709C13.2638 64.9816 12.9927 66.1743 12.6313 67.3489L2.06004 101.737C5.04168 103.436 14.4022 108.369 25.5337 109.941C26.5275 110.086 27.2142 110.989 27.0877 111.983C26.9612 112.887 26.1842 113.537 25.2987 113.537C25.2084 113.537 25.118 113.537 25.0458 113.519C13.9505 111.965 4.75255 107.393 0.957736 105.279L0.343338 107.285C0.108421 108.026 0 108.803 0 109.598C0 112.959 2.11425 115.941 5.25853 117.007C10.77 118.886 21.0702 121.615 37.1711 123.042C43.7307 123.639 51.248 124 59.7954 124C60.0122 124 60.2472 124 60.464 124V123.982L62.2711 124C62.4879 124 62.7228 124 62.9397 124C71.1979 124 78.4984 123.657 84.8954 123.096C101.394 121.705 111.893 118.904 117.477 117.007C120.621 115.941 122.735 112.959 122.735 109.598C122.735 108.803 122.627 108.026 122.392 107.285ZM66.9152 62.0723C66.9152 59.2352 68.2886 56.5246 70.5654 54.826C72.9327 53.0732 75.8601 52.1154 78.8056 52.1154C85.2929 52.1154 91.3285 54.8621 95.4847 59.6689L98.0146 62.5602C100.038 64.9094 101.177 67.9271 101.177 71.0353C101.177 74.1434 98.647 76.6552 95.557 76.6552H77.3238C74.3964 76.6552 71.5774 75.7697 69.1921 74.1073C67.7645 73.1134 66.9152 71.487 66.9152 69.7523V62.0723ZM24.8831 62.5602L27.3949 59.6689C31.5692 54.8621 37.6048 52.1154 43.9475 52.1154C47.0376 52.1154 49.965 53.0732 52.3323 54.826C54.6092 56.5246 55.9644 59.2352 55.9644 62.0723V69.7523C55.9644 71.487 55.1151 73.1134 53.6876 74.1073C51.3022 75.7697 48.5013 76.6552 45.5739 76.6552H27.3407C24.2326 76.6552 21.7208 74.1434 21.7208 71.0353C21.7208 67.9271 22.8412 64.9094 24.8831 62.5602ZM84.6062 119.573C82.1306 119.573 80.0344 117.964 79.2754 115.724H43.3874C42.6284 117.964 40.5322 119.573 38.0565 119.573C37.8578 119.573 37.6771 119.555 37.4783 119.537C34.6412 119.247 32.4005 116.844 32.4005 113.917C32.4005 112.76 32.7619 111.658 33.3763 110.754L22.0099 93.1717C21.4678 92.3224 21.7027 91.202 22.552 90.6599C23.3833 90.1178 24.5036 90.3707 25.0458 91.202L36.2676 108.586C36.8458 108.387 37.4241 108.261 38.0565 108.261C38.3095 108.261 38.5625 108.315 38.7974 108.351L51.6094 88.636H35.7254C34.7135 88.636 33.9184 87.8228 33.9184 86.8289C33.9184 85.835 34.7135 85.0219 35.7254 85.0219H53.1274C53.2177 84.2629 53.4526 83.5039 53.8863 82.8353L57.121 77.9744C58.0606 76.5649 59.6508 75.7155 61.3495 75.7697C63.0481 75.8059 64.6022 76.6913 65.4876 78.1551L68.4331 83.016C68.8307 83.6304 69.0114 84.3171 69.1017 85.0219H87.8228C88.8167 85.0219 89.6298 85.835 89.6298 86.8289C89.6298 87.8228 88.8167 88.636 87.8228 88.636H70.6196L71.9749 90.7141C72.2641 90.9671 72.4809 91.2743 72.5893 91.6718L83.4497 108.387C83.8292 108.315 84.2087 108.261 84.6062 108.261C85.2387 108.261 85.835 108.387 86.3952 108.586L97.617 91.202C98.1591 90.3707 99.2795 90.1358 100.129 90.6599C100.96 91.202 101.195 92.3224 100.653 93.1717L89.2865 110.754C89.9009 111.658 90.2623 112.76 90.2623 113.917C90.2623 117.043 87.7324 119.573 84.6062 119.573Z" fill="#D0D0D6"/>
    <path d="M108.694 55.2597V55.0067C108.694 31.2982 91.8346 11.1495 69.1741 7.33664V42.8272C92.2141 38.3276 103.544 47.8688 108.694 55.2597Z" fill="#D0D0D6"/>
    <path d="M71.2701 71.1437C73.041 72.3906 75.1372 73.0411 77.3238 73.0411H95.5569C96.6592 73.0411 97.5628 72.1556 97.5628 71.0353C97.5628 68.7945 96.7496 66.6261 95.2678 64.9274L92.756 62.0361C89.2865 58.0245 84.2448 55.7295 78.932 55.7295C76.619 55.7295 74.4686 56.4343 72.7158 57.7354C71.3605 58.7473 70.5292 60.3737 70.5292 62.0723V69.7523C70.5292 70.2944 70.8184 70.8184 71.2701 71.1437Z" fill="#D0D0D6"/>
    <path d="M84.6062 111.875C83.4858 111.875 82.5642 112.796 82.5642 113.917C82.5642 115.055 83.4858 115.959 84.6062 115.959C85.7266 115.959 86.6482 115.055 86.6482 113.917C86.6482 112.796 85.7266 111.875 84.6062 111.875Z" fill="#D0D0D6"/>
    <path d="M72.6799 112.11H79.2757C79.5106 111.423 79.872 110.79 80.3599 110.248L72.6799 98.4302V112.11Z" fill="#D0D0D6"/>
    <path d="M64.2047 90.5334H63.1385V112.11H69.0657V92.8825L66.9695 89.666C66.1744 90.2081 65.2347 90.5334 64.2047 90.5334Z" fill="#D0D0D6"/>
    <path d="M53.5611 42.8633V35.6351C53.5611 34.6412 54.3743 33.828 55.3682 33.828C56.362 33.828 57.1752 34.6412 57.1752 35.6351V45.4835H65.5599V0H57.1752V26.4553C57.1752 27.4491 56.362 28.2623 55.3682 28.2623C54.3743 28.2623 53.5611 27.4491 53.5611 26.4553V16.5345C53.3623 16.6972 53.1274 16.8417 52.8564 16.896C52.3323 17.0224 51.8263 17.1489 51.3204 17.2935C44.4174 19.209 38.3457 23.2387 33.7377 28.949C33.3763 29.4008 32.8523 29.6176 32.3282 29.6176C31.9307 29.6176 31.5151 29.4911 31.1898 29.2201C30.4128 28.5876 30.2863 27.4672 30.9187 26.6902C35.9966 20.3836 42.7188 15.9201 50.3626 13.8059C50.9228 13.6433 51.483 13.4987 52.0432 13.3722C52.6034 13.2457 53.1455 13.4083 53.5611 13.7517V7.37278C30.991 11.1495 14.0951 30.9368 14.0951 53.9767C14.0951 54.2116 14.0408 54.4465 13.9686 54.6453C13.9866 54.7537 14.0228 54.8621 14.0228 54.9706C19.2813 47.5978 30.6657 38.3095 53.5611 42.8633ZM25.0097 36.7735C25.5156 35.4725 26.112 34.1895 26.7806 32.9607C27.2323 32.0752 28.3346 31.7499 29.2201 32.2198C30.1056 32.6896 30.4308 33.7738 29.961 34.6593C29.3647 35.7797 28.8225 36.9362 28.3527 38.1288C28.0636 38.8336 27.395 39.2673 26.6722 39.2673C26.4553 39.2673 26.2204 39.2131 26.0035 39.1227C25.0819 38.7613 24.6302 37.6951 25.0097 36.7735Z" fill="#D0D0D6"/>
    <path d="M56.9584 86.3952C57.1391 86.6301 57.4644 86.9193 58.0245 86.9193H64.2047C64.9094 86.9193 65.2528 86.4494 65.3793 86.2326C65.4877 86.0338 65.7226 85.4917 65.3431 84.8773L62.3976 80.0344C62.0543 79.4561 61.4941 79.3839 61.2772 79.3839C61.0604 79.3839 60.5002 79.42 60.1388 79.9802L56.9042 84.8412C56.6512 85.2206 56.6512 85.564 56.7054 85.835C56.8319 86.0157 56.9042 86.1964 56.9584 86.3952Z" fill="#D0D0D6"/>
    <path d="M55.2598 89.666L53.507 92.3585V112.11H59.5244V90.5334H58.0246C57.0126 90.5334 56.073 90.2081 55.2598 89.666Z" fill="#D0D0D6"/>
    <path d="M27.3407 73.0411H45.5739C47.7424 73.0411 49.8385 72.3906 51.6275 71.1437C52.0793 70.8184 52.3503 70.2944 52.3503 69.7523V62.0723C52.3503 60.3737 51.5372 58.7473 50.1638 57.7354C48.429 56.4343 46.2606 55.7295 44.0921 55.7295C38.6529 55.7295 33.6112 58.0245 30.1236 62.0361L27.6118 64.9274C26.1481 66.6261 25.3349 68.7945 25.3349 71.0353C25.3349 72.1556 26.2384 73.0411 27.3407 73.0411Z" fill="#D0D0D6"/>
    <path d="M43.3874 112.11H49.8928V97.9242L42.0682 109.941C42.6646 110.556 43.1163 111.296 43.3874 112.11Z" fill="#D0D0D6"/>
    <path d="M38.0569 111.875C36.9365 111.875 36.0149 112.796 36.0149 113.917C36.0149 115.055 36.9365 115.959 38.0569 115.959C39.1772 115.959 40.0988 115.055 40.0988 113.917C40.0988 112.796 39.1772 111.875 38.0569 111.875Z" fill="#D0D0D6"/>
</svg>
