<svg width="46" height="46" viewBox="0 0 46 46" fill="none" xmlns="http://www.w3.org/2000/svg">
    <path d="M45.4034 39.7992L45.1688 39.0484C43.7744 39.826 40.3556 41.5287 36.2262 42.1119C36.1927 42.1186 36.1591 42.1186 36.1323 42.1186C35.7971 42.1186 35.5156 41.8773 35.4687 41.5421C35.415 41.1734 35.6698 40.8382 36.0385 40.7846C40.1947 40.2014 43.6806 38.3579 44.7665 37.7345L40.8449 24.9842C40.7377 24.6223 40.6505 24.2536 40.5701 23.8849C40.5165 23.8178 40.4762 23.7374 40.4494 23.6502C40.3489 23.2815 37.8484 14.7211 25.6345 17.255C25.6278 17.2617 25.6278 17.255 25.6211 17.255C25.487 17.8047 24.991 18.2136 24.401 18.2136H21.1297C20.5398 18.2136 20.0504 17.8047 19.9096 17.255C19.8828 17.255 19.8493 17.2617 19.8225 17.255C14.6406 16.1824 10.5716 16.9399 7.72253 19.5208C5.62431 21.4246 5.01428 23.6301 5.00758 23.6502C5.00758 23.6502 5.00087 23.6502 5.00087 23.6569C4.92043 24.1061 4.81988 24.5485 4.68581 24.9842L0.764208 37.7412C1.8703 38.3713 5.34276 40.2014 9.47217 40.7846C9.84086 40.8382 10.0956 41.1734 10.0487 41.5421C10.0017 41.8773 9.7135 42.1186 9.38502 42.1186C9.3515 42.1186 9.31798 42.1186 9.29117 42.1119C5.17517 41.5354 1.76304 39.8394 0.355289 39.0551L0.127367 39.7992C0.0402206 40.074 0 40.3623 0 40.6572C0 41.9041 0.784319 43.0102 1.95074 43.4057C3.99534 44.1029 7.81638 45.1151 13.7893 45.6447C16.2227 45.8659 19.0114 46 22.1822 46C22.2626 46 22.3498 46 22.4302 46V45.9933L23.1006 46C23.181 46 23.2681 46 23.3486 46C26.4121 46 29.1204 45.8726 31.4934 45.6648C37.6138 45.1486 41.5086 44.1096 43.58 43.4057C44.7464 43.0102 45.5308 41.9041 45.5308 40.6572C45.5308 40.3623 45.4905 40.074 45.4034 39.7992ZM24.8234 23.0268C24.8234 21.9743 25.3328 20.9688 26.1775 20.3387C27.0557 19.6884 28.1417 19.3331 29.2343 19.3331C31.6409 19.3331 33.8799 20.3521 35.4217 22.1352L36.3602 23.2078C37.111 24.0793 37.5334 25.1988 37.5334 26.3518C37.5334 27.5048 36.5949 28.4366 35.4486 28.4366H28.6846C27.5987 28.4366 26.5529 28.1081 25.668 27.4914C25.1384 27.1227 24.8234 26.5194 24.8234 25.8758V23.0268ZM9.23084 23.2078L10.1626 22.1352C11.7112 20.3521 13.9502 19.3331 16.3031 19.3331C17.4494 19.3331 18.5354 19.6884 19.4136 20.3387C20.2582 20.9688 20.761 21.9743 20.761 23.0268V25.8758C20.761 26.5194 20.4459 27.1227 19.9164 27.4914C19.0315 28.1081 17.9924 28.4366 16.9064 28.4366H10.1425C8.98951 28.4366 8.05771 27.5048 8.05771 26.3518C8.05771 25.1988 8.47333 24.0793 9.23084 23.2078ZM31.3862 44.3576C30.4678 44.3576 29.6902 43.761 29.4086 42.9298H16.0953C15.8138 43.761 15.0361 44.3576 14.1177 44.3576C14.044 44.3576 13.977 44.3509 13.9032 44.3442C12.8508 44.2369 12.0195 43.3454 12.0195 42.2594C12.0195 41.8304 12.1536 41.4214 12.3815 41.0863L8.16497 34.5637C7.96386 34.2486 8.05101 33.833 8.36607 33.6319C8.67444 33.4308 9.09006 33.5246 9.29117 33.833L13.4541 40.2818C13.6686 40.2081 13.8831 40.1612 14.1177 40.1612C14.2116 40.1612 14.3054 40.1813 14.3926 40.1947L19.1454 32.8811H13.253C12.8776 32.8811 12.5826 32.5794 12.5826 32.2107C12.5826 31.842 12.8776 31.5404 13.253 31.5404H19.7085C19.7421 31.2588 19.8292 30.9773 19.9901 30.7292L21.19 28.926C21.5386 28.4031 22.1285 28.088 22.7587 28.1081C23.3888 28.1215 23.9653 28.45 24.2938 28.993L25.3865 30.7963C25.534 31.0242 25.601 31.2789 25.6345 31.5404H32.5794C32.9481 31.5404 33.2498 31.842 33.2498 32.2107C33.2498 32.5794 32.9481 32.8811 32.5794 32.8811H26.1976L26.7004 33.652C26.8076 33.7458 26.8881 33.8598 26.9283 34.0073L30.9572 40.2081C31.0979 40.1813 31.2387 40.1612 31.3862 40.1612C31.6208 40.1612 31.842 40.2081 32.0498 40.2818L36.2128 33.833C36.4139 33.5246 36.8295 33.4375 37.1446 33.6319C37.4529 33.833 37.5401 34.2486 37.339 34.5637L33.1224 41.0863C33.3503 41.4214 33.4844 41.8304 33.4844 42.2594C33.4844 43.4191 32.5459 44.3576 31.3862 44.3576Z" fill="white"/>
    <path d="M40.3221 20.4996V20.4057C40.3221 11.6106 34.0676 4.13611 25.6613 2.72165V15.8875C34.2084 14.2183 38.4115 17.7578 40.3221 20.4996Z" fill="white"/>
    <path d="M26.4389 26.392C27.0959 26.8546 27.8735 27.0959 28.6846 27.0959H35.4485C35.8574 27.0959 36.1926 26.7674 36.1926 26.3518C36.1926 25.5206 35.891 24.7161 35.3413 24.086L34.4095 23.0134C33.1224 21.5252 31.2521 20.6739 29.2812 20.6739C28.4232 20.6739 27.6254 20.9353 26.9752 21.418C26.4724 21.7934 26.1641 22.3967 26.1641 23.0268V25.8758C26.1641 26.077 26.2713 26.2714 26.4389 26.392Z" fill="white"/>
    <path d="M31.3862 41.5019C30.9705 41.5019 30.6287 41.8438 30.6287 42.2594C30.6287 42.6817 30.9705 43.0169 31.3862 43.0169C31.8018 43.0169 32.1437 42.6817 32.1437 42.2594C32.1437 41.8438 31.8018 41.5019 31.3862 41.5019Z" fill="white"/>
    <path d="M26.9618 41.589H29.4086C29.4957 41.3343 29.6298 41.0997 29.8108 40.8986L26.9618 36.5144V41.589Z" fill="white"/>
    <path d="M23.8178 33.585H23.4223V41.589H25.6211V34.4564L24.8435 33.2632C24.5485 33.4643 24.1999 33.585 23.8178 33.585Z" fill="white"/>
    <path d="M19.8694 15.9009V13.2195C19.8694 12.8508 20.1711 12.5491 20.5398 12.5491C20.9085 12.5491 21.2102 12.8508 21.2102 13.2195V16.8729H24.3206V0H21.2102V9.81405C21.2102 10.1827 20.9085 10.4844 20.5398 10.4844C20.1711 10.4844 19.8694 10.1827 19.8694 9.81405V6.13378C19.7957 6.19411 19.7086 6.24774 19.608 6.26785C19.4136 6.31478 19.2259 6.3617 19.0382 6.41533C16.4774 7.12591 14.225 8.62081 12.5156 10.7391C12.3815 10.9067 12.1871 10.9872 11.9927 10.9872C11.8452 10.9872 11.6911 10.9403 11.5704 10.8397C11.2821 10.6051 11.2352 10.1894 11.4698 9.9012C13.3536 7.56164 15.8473 5.90586 18.6829 5.12154C18.8907 5.06121 19.0985 5.00758 19.3063 4.96065C19.5142 4.91373 19.7153 4.97406 19.8694 5.10143V2.73506C11.4967 4.13611 5.22881 11.4765 5.22881 20.0236C5.22881 20.1108 5.2087 20.1979 5.18188 20.2716C5.18859 20.3119 5.20199 20.3521 5.20199 20.3923C7.15274 17.6572 11.376 14.2116 19.8694 15.9009ZM9.27777 13.6418C9.46548 13.1591 9.68669 12.6832 9.93473 12.2273C10.1023 11.8989 10.5112 11.7782 10.8397 11.9525C11.1682 12.1268 11.2889 12.529 11.1146 12.8575C10.8933 13.2731 10.6922 13.7021 10.5179 14.1446C10.4107 14.406 10.1626 14.5669 9.89451 14.5669C9.81406 14.5669 9.72692 14.5468 9.64647 14.5133C9.30459 14.3792 9.137 13.9837 9.27777 13.6418Z" fill="white"/>
    <path d="M21.1297 32.0498C21.1967 32.137 21.3174 32.2442 21.5252 32.2442H23.8178C24.0793 32.2442 24.2067 32.07 24.2536 31.9895C24.2938 31.9158 24.381 31.7147 24.2402 31.4867L23.1475 29.6902C23.0201 29.4757 22.8123 29.4489 22.7319 29.4489C22.6514 29.4489 22.4436 29.4623 22.3095 29.6701L21.1096 31.4733C21.0157 31.6141 21.0157 31.7415 21.0359 31.842C21.0828 31.9091 21.1096 31.9761 21.1297 32.0498Z" fill="white"/>
    <path d="M20.4996 33.2632L19.8493 34.262V41.589H22.0816V33.585H21.5252C21.1498 33.585 20.8012 33.4643 20.4996 33.2632Z" fill="white"/>
    <path d="M10.1425 27.0959H16.9065C17.7109 27.0959 18.4885 26.8546 19.1522 26.392C19.3197 26.2714 19.4203 26.077 19.4203 25.8758V23.0268C19.4203 22.3967 19.1186 21.7934 18.6092 21.418C17.9656 20.9353 17.1612 20.6739 16.3568 20.6739C14.339 20.6739 12.4687 21.5252 11.1749 23.0134L10.2431 24.086C9.7001 24.7161 9.39844 25.5206 9.39844 26.3518C9.39844 26.7674 9.73362 27.0959 10.1425 27.0959Z" fill="white"/>
    <path d="M16.0953 41.589H18.5086V36.3267L15.606 40.7846C15.8272 41.0125 15.9948 41.2874 16.0953 41.589Z" fill="white"/>
    <path d="M14.1177 41.5019C13.7021 41.5019 13.3602 41.8438 13.3602 42.2594C13.3602 42.6817 13.7021 43.0169 14.1177 43.0169C14.5334 43.0169 14.8752 42.6817 14.8752 42.2594C14.8752 41.8438 14.5334 41.5019 14.1177 41.5019Z" fill="white"/>
</svg>
